<svg xmlns="http://www.w3.org/2000/svg" version="1.0" width="1259.000000pt" height="1165.000000pt" viewBox="0 0 1259.000000 1165.000000" preserveAspectRatio="xMidYMid meet">

<g transform="translate(0.000000,1165.000000) scale(0.100000,-0.100000)" fill="#fefefe" stroke="none">
<path d="M8940 8657 l0 -1003 -39 -35 c-21 -20 -51 -58 -67 -85 -26 -45 -29 -57 -29 -144 0 -87 3 -100 30 -149 124 -224 451 -210 557 24 16 38 22 69 22 125 0 96 -35 173 -106 233 l-48 40 0 999 0 998 -160 0 -160 0 0 -1003z" fill="#fefefe"/>
<path d="M8271 8890 c-1 -18 168 -524 268 -809 40 -111 70 -205 67 -208 -2 -3 -143 33 -313 80 -169 47 -309 84 -311 82 -2 -1 101 -116 229 -254 127 -139 229 -254 228 -255 -2 -2 -200 -20 -439 -40 -630 -53 -789 -66 -845 -67 -39 0 -45 -2 -30 -10 22 -10 390 -80 938 -180 191 -34 347 -65 346 -68 0 -3 -221 -168 -491 -366 -270 -198 -501 -368 -512 -378 -20 -17 -20 -17 14 -4 19 8 293 116 608 242 315 125 575 225 578 222 3 -3 -45 -175 -106 -382 -61 -207 -110 -378 -108 -380 3 -4 190 215 443 517 49 59 92 104 96 100 3 -4 45 -216 94 -472 97 -519 96 -512 101 -507 4 4 163 977 164 1001 1 6 15 -5 31 -24 46 -52 501 -598 603 -723 49 -59 90 -106 92 -105 3 4 -99 243 -331 777 -47 107 -84 196 -82 197 1 1 34 -6 72 -17 374 -104 618 -170 626 -167 5 2 -111 117 -257 257 -146 139 -262 257 -257 261 4 3 258 51 563 104 305 54 556 100 558 101 6 5 -61 13 -603 76 -291 33 -531 62 -533 63 -2 3 103 90 628 515 151 123 282 230 290 238 19 18 75 41 -720 -302 -162 -70 -310 -134 -327 -141 l-33 -14 21 52 c79 199 311 818 316 841 5 26 4 28 -13 19 -27 -15 -176 -143 -348 -300 l-149 -137 7 -110 c3 -60 6 -182 6 -270 l0 -161 32 -34 c163 -179 187 -439 60 -636 -98 -150 -253 -234 -432 -234 -285 1 -510 223 -511 505 -1 92 13 159 48 230 28 56 100 155 120 162 10 4 13 64 13 278 l0 272 -192 224 c-226 262 -317 360 -317 339z" fill="#fefefe"/>
<path d="M8983 5526 c-107 -35 -204 -124 -245 -224 l-23 -57 -3 -1514 c-3 -1686 -6 -1585 66 -1691 49 -73 121 -126 205 -151 99 -31 257 -24 340 14 79 36 158 113 193 190 l29 62 0 1555 0 1555 -28 58 c-36 72 -113 149 -186 184 -50 25 -68 28 -181 30 -85 2 -138 -2 -167 -11z m212 -351 l25 -24 0 -1443 c0 -1143 -3 -1448 -13 -1468 -29 -57 -101 -60 -141 -6 -21 27 -21 29 -21 1473 l0 1445 28 24 c38 32 90 32 122 -1z" fill="#fefefe"/>
<path d="M7796 5510 c-70 -22 -150 -75 -189 -125 -34 -42 -40 -56 -192 -420 -65 -154 -148 -352 -185 -440 -37 -88 -170 -405 -295 -705 -126 -300 -231 -548 -235 -553 -3 -4 -34 61 -67 145 -34 84 -126 313 -206 508 -79 195 -233 576 -342 845 -109 270 -211 508 -226 530 -102 152 -283 238 -449 215 -233 -33 -388 -243 -352 -477 13 -81 20 -99 347 -873 92 -217 203 -478 245 -580 481 -1142 611 -1444 646 -1508 56 -99 162 -205 251 -249 63 -31 83 -36 146 -37 85 0 151 21 228 74 65 44 154 148 197 227 17 32 197 456 400 943 203 487 468 1119 588 1405 l219 520 0 140 c0 152 -9 187 -72 278 -88 127 -295 189 -457 137z m-2237 -397 c34 -33 53 -75 156 -338 112 -287 176 -449 470 -1195 73 -184 210 -534 306 -777 96 -244 176 -443 179 -443 3 0 57 123 120 273 62 149 137 328 166 397 86 204 638 1525 746 1785 55 132 110 256 123 276 40 62 120 76 146 27 31 -57 28 -63 -547 -1445 -306 -736 -573 -1367 -594 -1403 -45 -76 -67 -92 -126 -92 -62 0 -95 28 -142 119 -22 43 -290 673 -596 1400 -594 1411 -582 1381 -536 1431 33 36 83 30 129 -15z" fill="#fefefe"/>
<path d="M2180 3691 l0 -1831 768 0 c773 1 957 6 1089 34 330 70 592 315 708 660 47 141 58 211 58 381 0 190 -16 265 -89 414 -74 149 -214 277 -433 395 l-81 43 59 46 c194 153 294 404 295 737 0 218 -32 344 -126 487 -137 209 -372 360 -678 436 -81 20 -116 21 -827 24 l-743 4 0 -1830z m1570 1460 c245 -74 411 -234 466 -451 26 -100 24 -303 -4 -403 -67 -236 -229 -398 -498 -496 l-75 -27 99 -21 c231 -49 423 -164 546 -327 311 -414 192 -918 -272 -1151 -194 -97 -265 -105 -938 -105 l-524 0 0 1506 0 1505 563 -3 c550 -4 564 -4 637 -27z" fill="#fefefe"/>
<path d="M2670 4441 l0 -631 401 0 401 0 66 26 c357 142 545 350 569 629 22 261 -133 482 -402 573 l-80 27 -477 3 -478 3 0 -630z m912 321 c64 -32 121 -97 148 -168 29 -77 25 -209 -9 -296 -28 -71 -98 -151 -165 -186 l-51 -27 -245 0 -245 0 -3 340 c-1 187 0 346 3 353 4 11 55 13 262 10 247 -3 260 -4 305 -26z" fill="#fefefe"/>
<path d="M2670 2984 l0 -705 473 4 c522 4 543 6 704 72 222 89 386 269 433 473 15 67 15 207 0 274 -19 80 -81 206 -134 270 -124 152 -336 266 -570 307 -36 7 -229 11 -483 11 l-423 0 0 -706z m1017 418 c137 -48 226 -174 240 -343 17 -197 -87 -399 -246 -476 l-56 -28 -307 -3 -308 -3 0 435 0 436 313 0 c273 -1 318 -3 364 -18z" fill="#fefefe"/>
</g>
</svg>